PathFileType	4	(X/Y/Z)	C:\Users\Basilio\Documents\Thesis Gigler\squatting_fais\c3dfiles\047\SLS_pre_back4\markers_experimental.trc
DataRate	CameraRate	NumFrames	NumMarkers	Units	OrigDataRate	OrigDataStartFrame	OrigNumFrames
200.000000	200.000000	4	61	mm	200.000000	950	1267
Frame#	Time	FHD			LBHD			RBHD			C7			T10			CLAV			LSHO			LUUPA			LMUPA			LDUPA			LLEP			LMEP			LRAD			LUL			LRFIN			RSHO			RUPA1			RMUPA			RDUPA			RLEP			RMEP			RUL			RUFIN			LASI			RASI			USACR			LSACR			RSACR			LTHI1			LTHI2			LTHI3			LTHI4			LLFC			LMFC			LTIB1			LTIB2			LTIB3			LTIB4			LLMAL			LMMAL			LMT1			LMT2			LMT5			RTHI			RTHI2			RTHI3			RTHI4			RLFC			RMFC			RTIB1			RTIB2			RTIB3			RTIB4			RLMAL			RMMAL			RHEE			RMT1			RMT2			RMT5			RRAD			*60			
		X1	Y1	Z1	X2	Y2	Z2	X3	Y3	Z3	X4	Y4	Z4	X5	Y5	Z5	X6	Y6	Z6	X7	Y7	Z7	X8	Y8	Z8	X9	Y9	Z9	X10	Y10	Z10	X11	Y11	Z11	X12	Y12	Z12	X13	Y13	Z13	X14	Y14	Z14	X15	Y15	Z15	X16	Y16	Z16	X17	Y17	Z17	X18	Y18	Z18	X19	Y19	Z19	X20	Y20	Z20	X21	Y21	Z21	X22	Y22	Z22	X23	Y23	Z23	X24	Y24	Z24	X25	Y25	Z25	X26	Y26	Z26	X27	Y27	Z27	X28	Y28	Z28	X29	Y29	Z29	X30	Y30	Z30	X31	Y31	Z31	X32	Y32	Z32	X33	Y33	Z33	X34	Y34	Z34	X35	Y35	Z35	X36	Y36	Z36	X37	Y37	Z37	X38	Y38	Z38	X39	Y39	Z39	X40	Y40	Z40	X41	Y41	Z41	X42	Y42	Z42	X43	Y43	Z43	X44	Y44	Z44	X45	Y45	Z45	X46	Y46	Z46	X47	Y47	Z47	X48	Y48	Z48	X49	Y49	Z49	X50	Y50	Z50	X51	Y51	Z51	X52	Y52	Z52	X53	Y53	Z53	X54	Y54	Z54	X55	Y55	Z55	X56	Y56	Z56	X57	Y57	Z57	X58	Y58	Z58	X59	Y59	Z59	X60	Y60	Z60	X61	Y61	Z61	

951	4.75	-10.67367076873779	1604.624389648438	-1121.77880859375	-186.0520477294922	1551.915283203125	-1138.28125	-155.6341247558594	1556.602661132813	-992.3701782226565	-202.1106719970704	1403.837646484375	-1064.9560546875	-332.1970825195313	1139.7939453125	-1009.231079101563	-77.39906311035158	1307.3740234375	-1097.18603515625	-152.3050079345703	1336.44189453125	-1244.445922851563	-126.5020370483399	1190.2734375	-1354.236083984375	-78.47933197021486	1208.945190429688	-1356.017211914063	-70.64085388183595	1152.425537109375	-1374.7275390625	-1.482117652893067	1129.988403320313	-1388.7333984375	-14.36838054656983	1075.867065429688	-1314.4375	171.6630249023438	1220.469482421875	-1221.364501953125	206.4444885253907	1153.47412109375	-1224.0224609375	260.7525329589844	1229.053344726563	-1223.8681640625	-77.02383422851564	1357.239013671875	-942.6137695312502	3.452804565429688	1206.886352539063	-849.4808349609377	42.13001251220704	1220.227294921875	-876.9942626953127	57.6609230041504	1163.931274414063	-860.933044433594	124.0361328125	1137.052490234375	-888.3369750976565	77.29654693603517	1077.02490234375	-936.9869384765627	263.2139587402344	1156.514770507813	-1111.18798828125	244.9402465820313	1243.338134765625	-1135.951538085938	-266.0372924804688	871.982604980469	-1087.561279296875	-247.6591339111329	884.3757324218752	-863.258972167969	-397.8203430175782	1020.718627929688	-978.9425048828127	-417.3876037597657	992.883728027344	-1004.153625488281	-411.0215148925782	995.5310668945315	-945.7791748046877	-326.3107604980469	752.1611938476564	-1166.756469726563	-259.9119567871094	700.4014892578126	-1172.87060546875	-217.6517791748047	723.2977905273439	-1161.748291015625	-259.7164916992188	639.5932617187501	-1174.909790039063	-202.5939483642579	483.4971008300782	-1146.000122070313	-159.7500915527344	485.348602294922	-1027.061889648438	-209.5832214355469	315.1556701660157	-1035.07861328125	-235.0178985595704	265.6888427734376	-1103.468505859375	-219.5814819335938	263.0189208984376	-1058.595825195313	-261.4815979003907	201.1508178710938	-1021.379516601563	-343.2009277343751	123.507797241211	-1060.736328125	-321.4360351562501	140.8080444335938	-972.3240356445315	-208.8846282958985	62.52816009521486	-990.338562011719	-207.6673278808594	62.09003067016603	-1035.639038085938	-257.6230163574219	51.55923461914064	-1079.6142578125	-345.2682800292969	730.8461303710939	-759.8541259765626	-306.7998046875001	676.2453002929689	-755.3376464843751	-277.0414733886719	675.5246582031251	-767.9007568359376	-334.6259155273438	596.5285034179689	-749.6749877929689	-337.2238159179688	463.602508544922	-764.4863891601564	-336.3993225097657	435.5629882812501	-892.8184814453127	-435.621063232422	387.5396423339845	-771.0224609375002	-526.3031616210939	441.8122558593751	-737.5266723632814	-518.0692749023439	395.8448791503907	-744.8786010742189	-565.6281738281251	373.5934753417969	-773.3216552734377	-722.3837890625001	417.1993103027345	-744.2431640625001	-707.0916137695314	377.3227844238282	-827.1394042968752	-744.2945556640626	466.8589782714845	-807.394714355469	-791.9146728515627	266.4022521972657	-802.925231933594	-792.629089355469	262.1872863769532	-752.7955932617189	-816.5262451171877	320.8547668457032	-710.4208374023439	nan	nan	nan	nan	nan	nan	
952	4.755	-12.590238571167	1607.667358398438	-1121.2236328125	-187.6150970458985	1554.76318359375	-1137.975219726563	-157.1158599853516	1559.149536132813	-992.2073364257815	-203.0446777343751	1406.192626953125	-1064.861206054688	-332.6398620605469	1141.789428710938	-1009.392028808594	-78.40706634521486	1310.25830078125	-1097.076171875	-153.901107788086	1339.187255859375	-1244.201538085938	-127.3184814453125	1192.855590820313	-1354.272216796875	-79.64881896972658	1211.635009765625	-1355.947509765625	-71.56490325927736	1155.156005859375	-1374.636474609375	-2.356570482254029	1132.790283203125	-1388.64697265625	-14.75133228302002	1078.513671875	-1314.350830078125	170.304428100586	1223.52197265625	-1220.8837890625	205.5598754882813	1156.695922851563	-1223.96875	259.7019042968751	1232.312744140625	-1223.782592773438	-78.35877990722658	1360.03369140625	-942.4917602539065	2.597631692886353	1209.655639648438	-849.533386230469	41.18680572509766	1223.1220703125	-877.0940551757815	56.92625808715822	1166.756958007813	-860.8440551757815	123.2153015136719	1139.878295898438	-888.1676025390627	76.45092773437501	1079.82373046875	-936.828063964844	262.2884826660157	1159.678588867188	-1111.095092773438	243.9849090576172	1246.55859375	-1136.1943359375	-265.5974731445313	873.7792968750002	-1087.539672851563	-247.2729949951172	886.5532836914065	-863.0938720703127	-396.5579833984376	1022.36279296875	-979.6347656250002	-416.9887695312501	994.611022949219	-1004.365478515625	-410.550506591797	997.1564941406252	-945.9526367187502	-326.0286560058594	753.5382690429689	-1166.704345703125	-259.6412353515626	701.2467651367189	-1172.669311523438	-217.5941467285157	724.3165893554689	-1161.251586914063	-260.2368774414063	640.6784667968751	-1174.529418945313	-203.7680053710938	484.3113403320314	-1145.426147460938	-160.9937896728516	485.8851318359376	-1026.796630859375	-210.2319946289063	315.6252136230469	-1034.951416015625	-235.3444976806641	266.1717529296876	-1103.293701171875	-220.1937561035157	263.5034790039063	-1058.378295898438	-261.6639099121094	201.3327636718751	-1021.193054199219	-343.1843566894532	123.50927734375	-1060.668212890625	-321.5292663574219	140.6908264160157	-972.2233886718752	-208.9062042236329	62.52617645263673	-990.3041992187502	-207.4863281250001	62.1881675720215	-1035.606567382813	-257.5773315429688	51.63214492797853	-1079.54931640625	-344.6528015136719	733.0356445312501	-759.8942871093751	-306.5338439941407	678.2964477539064	-754.8253784179689	-276.3710021972657	677.6185913085939	-767.4763183593751	-333.8302612304688	598.7255859375001	-749.5631103515626	-336.4536132812501	465.712860107422	-764.3034057617189	-335.6820068359376	437.7411193847657	-892.490661621094	-434.9429321289064	389.4974060058595	-771.5403442382815	-525.2414550781251	443.5680541992189	-737.4673461914064	-517.4142456054689	397.7043762207032	-744.5596313476564	-564.7077636718751	375.2246704101563	-773.1500244140627	-721.4667358398439	418.5965576171876	-743.8937988281251	-706.5138549804689	378.5189514160157	-826.5992431640627	-743.6638793945314	468.034881591797	-807.1302490234377	-791.7584228515627	267.0299987792969	-802.1661376953127	-791.6092529296877	263.4892272949219	-752.3541870117189	-815.6848144531252	322.1461486816407	-710.2247314453126	nan	nan	nan	nan	nan	nan	
953	4.76	-14.06911945343018	1610.806274414063	-1120.806640625	-189.2880401611328	1557.533203125	-1137.7353515625	-158.5903472900391	1561.79638671875	-992.0034179687502	-204.5954589843751	1408.87744140625	-1064.818603515625	-328.5883483886719	1143.167236328125	-1009.473266601563	-79.52147674560548	1313.060180664063	-1096.80419921875	-154.6892547607422	1341.730590820313	-1244.177001953125	-128.4087524414063	1195.465209960938	-1354.054443359375	-80.91773223876955	1214.167236328125	-1355.51611328125	-72.35507965087892	1157.807250976563	-1374.447021484375	-3.108394861221314	1135.525512695313	-1388.570434570313	-15.59435939788819	1081.261352539063	-1314.262939453125	169.6697235107422	1226.687622070313	-1221.109619140625	204.5621643066407	1159.814697265625	-1223.849609375	258.7307128906251	1235.478271484375	-1223.74755859375	-79.52576446533205	1362.54248046875	-942.174499511719	1.668156862258912	1212.49951171875	-849.5131835937502	40.0561637878418	1225.625732421875	-876.2885742187502	55.62371826171876	1169.683715820313	-860.615173339844	122.3640365600586	1142.882568359375	-888.2739868164065	75.97776031494142	1082.524047851563	-937.239929199219	261.4763488769532	1163.055786132813	-1111.036865234375	243.0870056152344	1249.809448242188	-1136.152954101563	-264.3971557617188	875.1536865234377	-1087.889526367188	-246.6500549316407	889.0059204101565	-863.2451782226565	-396.4544677734376	1023.890563964844	-979.7781372070315	-416.7141418457032	996.215759277344	-1004.542846679688	-410.3473510742189	999.0412597656252	-946.0515747070315	-325.6069641113282	755.1146240234376	-1166.512573242188	-259.9912109375001	702.6192016601564	-1172.305786132813	-217.4035797119141	724.9281005859376	-1161.328491210938	-260.5486450195313	641.5869750976564	-1174.198364257813	-204.6950225830079	484.964569091797	-1144.9560546875	-162.241928100586	486.5676269531251	-1026.35888671875	-211.1932220458985	315.8919372558594	-1034.462890625	-234.5603790283204	266.9584350585938	-1103.898803710938	-220.8039855957032	263.7378234863282	-1058.14501953125	-262.1115112304688	201.5751037597657	-1020.890197753906	-343.3217163085938	123.5324783325196	-1060.534423828125	-321.5756835937501	140.6087036132813	-972.1194458007815	-208.8238677978516	62.54707336425783	-990.3281860351565	-207.5780487060547	62.18314743041994	-1035.53515625	-257.5728149414063	51.68190383911134	-1079.52978515625	-343.9648437500001	735.1536254882814	-759.5956420898439	-305.5833435058594	680.5847167968751	-755.0533447265626	-275.6293029785157	679.5928955078126	-767.5948486328126	-333.3484191894532	600.8765258789064	-749.5157470703126	-335.5072021484376	467.6776123046876	-764.0786132812501	-334.6586303710938	439.7068176269532	-892.1516113281252	-433.9597167968751	391.3508300781251	-770.4565429687502	-524.6387329101564	445.3070068359376	-737.2324829101564	-516.3557128906251	399.1913452148439	-744.3931884765626	-563.6643676757814	376.8200988769532	-773.4819335937502	-720.7959594726564	419.8998107910157	-743.7861938476564	-705.4948730468751	379.8249206542969	-826.845886230469	-742.8441162109376	469.419403076172	-807.1551513671877	-790.1235351562502	268.4224243164063	-802.100524902344	-790.5572509765627	264.0380249023438	-753.7913208007814	-814.8777465820315	323.3048095703126	-710.1022949218751	nan	nan	nan	nan	nan	nan	
954	4.765	-15.99527740478516	1613.521728515625	-1120.543334960938	-190.8436279296875	1560.239013671875	-1137.585693359375	-160.2123565673828	1564.542358398438	-991.7236938476565	-205.6327209472657	1411.177612304688	-1064.701782226563	-332.9500732421876	1145.77392578125	-1009.525634765625	-80.49927520751955	1315.973754882813	-1096.776245117188	-156.1764221191407	1344.364624023438	-1244.143188476563	-129.3589019775391	1198.206787109375	-1354.001098632813	-81.92463684082033	1216.713745117188	-1355.37353515625	-73.11792755126955	1160.477905273438	-1374.421997070313	-4.109049797058106	1138.396118164063	-1388.48876953125	-16.61368179321289	1084.134399414063	-1314.127075195313	168.2658081054688	1229.883544921875	-1220.579956054688	203.6736145019532	1162.912719726563	-1223.701904296875	257.6866149902344	1238.698608398438	-1223.597778320313	-80.4440383911133	1365.4072265625	-942.1918945312502	0.7112004160881044	1215.264038085938	-849.596374511719	39.25174713134766	1228.406494140625	-876.3426513671877	55.02808380126955	1172.424560546875	-860.781188964844	121.3158493041992	1145.826416015625	-888.0568847656252	74.74143218994142	1085.655883789063	-936.8633422851565	260.3576049804688	1166.142578125	-1110.818603515625	241.8245239257813	1252.782958984375	-1135.712036132813	-264.8071594238282	877.6658325195315	-1087.4736328125	-245.8684692382813	891.2090454101565	-863.5527343750002	-397.051727294922	1026.114379882813	-979.6322021484377	-416.3075256347657	998.1172485351565	-1004.655395507813	-410.0970458984376	1000.724304199219	-946.1941528320315	-325.3764038085938	756.5106201171876	-1166.385986328125	-259.9241027832032	703.5491943359376	-1172.146240234375	-216.8722686767579	725.7467041015626	-1161.249755859375	-260.8256225585938	642.6470336914064	-1174.211181640625	-206.3531036376954	486.0182495117189	-1144.654418945313	-163.6248016357422	486.9866027832032	-1025.520141601563	-211.7122039794922	316.6693725585938	-1034.280029296875	-235.6977996826172	267.3266601562501	-1103.261352539063	-221.2193908691407	264.5185546875001	-1058.1669921875	-262.2486572265626	201.8843231201172	-1020.885375976563	-343.3903808593751	123.6054458618164	-1060.39794921875	-321.7567138671876	140.4922180175782	-971.9248657226565	-208.7599334716797	62.54380798339845	-990.281677246094	-207.5677947998047	62.18646240234376	-1035.52099609375	-257.5692749023438	51.742733001709	-1079.503173828125	-343.3488769531251	737.2532958984376	-759.5062255859376	-304.9273681640626	682.6248168945314	-755.0345458984376	-275.2542419433594	681.7363891601564	-767.3620605468751	-332.4902648925782	602.8829345703126	-749.1481933593751	-334.9328002929688	469.8017883300782	-763.5501708984376	-333.8872375488282	441.2055053710939	-892.0235595703127	-433.1421203613282	393.1647033691407	-770.1719360351565	-523.9829711914064	447.0375061035157	-736.8928833007814	-515.4893798828126	401.2984619140626	-744.2725830078126	-563.0185546875001	378.4868469238282	-772.632019042969	-720.2001342773439	421.2904357910157	-743.7966918945314	-704.3352050781251	381.1464843750001	-826.6172485351565	-742.1079711914064	470.6052856445314	-807.154968261719	-789.048278808594	269.4233093261719	-802.6602172851565	-789.417907714844	265.7558593750001	-752.6562500000001	-813.7310791015627	324.7290954589844	-710.0765380859376	nan	nan	nan	nan	nan	nan	
